<?xml version="1.0" encoding="UTF-8" standalone="no"?>
<svg
   id="root"
   width="500"
   height="500"
   style="background-color:#262a2b"
   version="1.2"
   sodipodi:docname="voicelink.svg"
   inkscape:export-filename="/home/lunar/Downloads/d#+.png"
   inkscape:export-xdpi="98.300003"
   inkscape:export-ydpi="98.300003"
   inkscape:version="1.1.1 (3bf5ae0d25, 2021-09-20)"
   xmlns:inkscape="http://www.inkscape.org/namespaces/inkscape"
   xmlns:sodipodi="http://sodipodi.sourceforge.net/DTD/sodipodi-0.dtd"
   xmlns="http://www.w3.org/2000/svg"
   xmlns:svg="http://www.w3.org/2000/svg">
  <defs
     id="defs11" />
  <sodipodi:namedview
     id="namedview9"
     pagecolor="#ffffff"
     bordercolor="#666666"
     borderopacity="1.0"
     inkscape:pageshadow="2"
     inkscape:pageopacity="0.0"
     inkscape:pagecheckerboard="0"
     showgrid="false"
     inkscape:showpageshadow="false"
     inkscape:zoom="1.26"
     inkscape:cx="249.60317"
     inkscape:cy="248.01587"
     inkscape:window-width="1920"
     inkscape:window-height="1007"
     inkscape:window-x="0"
     inkscape:window-y="0"
     inkscape:window-maximized="1"
     inkscape:current-layer="root" />
  <style
     id="style">tspan{white-space:pre}</style>
  <rect
     style="fill:#262a2b;stroke:#000000;stroke-width:0.999999;paint-order:stroke fill markers"
     id="rect850"
     height="499"
     x="0.5"
     y="0.5"
     width="499"
     inkscape:label="background" />
  <text
     id="d-sharp"
     x="-27.6"
     y="213.3"
     style="font-size:300px"><tspan
       id="text-d"
       x="-1.6"
       y="352.29999"
       style="font-style:normal;font-variant:normal;font-weight:normal;font-stretch:normal;font-size:300px;font-family:Nunito;-inkscape-font-specification:'Nunito, @wght=500';font-variant-ligatures:normal;font-variant-caps:normal;font-variant-numeric:normal;font-variant-east-asian:normal;font-variation-settings:'wght' 500;fill:#ffffff;stroke:#7289da;stroke-width:10;stroke-linejoin:round;paint-order:stroke fill markers">D#</tspan></text>
  <text
     id="plus"
     x="-10"
     y="106.8"><tspan
       id="text-plus"
       x="369"
       y="147.8"
       style="font-style:normal;font-variant:normal;font-weight:normal;font-stretch:normal;font-size:200px;font-family:Nunito;-inkscape-font-specification:'Nunito, @wght=500';font-variant-ligatures:normal;font-variant-caps:normal;font-variant-numeric:normal;font-variant-east-asian:normal;font-variation-settings:'wght' 500;fill:#7289da">+</tspan></text>
  <g
     id="g1163"
     transform="matrix(7.0445686,0,0,7.044566,223.74372,222.65181)"
     style="stroke-width:0.141954">
    <path
       fill="#8899a6"
       d="m 15,9 6,-6 c 0,0 6,-6 12,0 6,6 0,12 0,12 l -8,8 c 0,0 -6,6 -12,0 -1.125,-1.125 -1.822,-2.62 -1.822,-2.62 l 3.353,-3.348 c 0,0 -0.135,1.364 1.469,2.968 0,0 3,3 6,0 l 8,-8 c 0,0 3,-3 0,-6 -3,-3 -6,0 -6,0 l -3.729,3.729 c 0,0 -1.854,-1.521 -5.646,-0.354 z"
       id="path1151"
       style="stroke-width:0.0335845" />
    <path
       fill="#8899a6"
       d="m 20.845,27 -6,6 c 0,0 -6,6 -12,0 -6,-6 0,-12 0,-12 l 8,-8 c 0,0 6,-6 12,0 1.125,1.125 1.822,2.62 1.822,2.62 l -3.354,3.349 c 0,0 0.135,-1.365 -1.469,-2.969 0,0 -3,-3 -6,0 l -8,8 c 0,0 -3,3 0,6 3,3 6,0 6,0 l 3.729,-3.729 c 0,0 1.854,1.521 5.646,0.354 z"
       id="path1153"
       style="stroke-width:0.0335845" />
  </g>
</svg>
