<svg xmlns="http://www.w3.org/2000/svg" id="root" width="500" height="500" style="background-color:#262a2b" version="1.2"><style id="style">tspan{white-space:pre}</style><path id="rect850" d="M.5.5h499v499H.5z" style="fill:#262a2b;stroke:#000;stroke-width:.999999;paint-order:stroke fill markers"/><text id="d-sharp" x="-27.6" y="213.3" style="font-size:300px"><tspan id="text-d" x="-1.6" y="352.3" style="font-style:normal;font-variant:normal;font-weight:400;font-stretch:normal;font-size:300px;font-family:Nunito;-inkscape-font-specification:&quot;Nunito, @wght=500&quot;;font-variant-ligatures:normal;font-variant-caps:normal;font-variant-numeric:normal;font-variant-east-asian:normal;font-variation-settings:&quot;wght&quot;500;fill:#fff;stroke:#7289da;stroke-width:10;stroke-linejoin:round;paint-order:stroke fill markers">D#</tspan></text><text id="plus" x="-10" y="106.8"><tspan id="text-plus" x="369" y="147.8" style="font-style:normal;font-variant:normal;font-weight:400;font-stretch:normal;font-size:200px;font-family:Nunito;-inkscape-font-specification:&quot;Nunito, @wght=500&quot;;font-variant-ligatures:normal;font-variant-caps:normal;font-variant-numeric:normal;font-variant-east-asian:normal;font-variation-settings:&quot;wght&quot;500;fill:#7289da">+</tspan></text><g id="g1163" style="stroke-width:.141954" transform="translate(223.744 222.652) scale(7.04457)"><path id="path1151" fill="#8899a6" d="m15 9 6-6s6-6 12 0 0 12 0 12l-8 8s-6 6-12 0c-1.125-1.125-1.822-2.62-1.822-2.62l3.353-3.348S14.396 18.396 16 20c0 0 3 3 6 0l8-8s3-3 0-6-6 0-6 0l-3.729 3.729s-1.854-1.521-5.646-.354z" style="stroke-width:.0335845"/><path id="path1153" fill="#8899a6" d="m20.845 27-6 6s-6 6-12 0 0-12 0-12l8-8s6-6 12 0c1.125 1.125 1.822 2.62 1.822 2.62l-3.354 3.349s.135-1.365-1.469-2.969c0 0-3-3-6 0l-8 8s-3 3 0 6 6 0 6 0l3.729-3.729s1.854 1.521 5.646.354z" style="stroke-width:.0335845"/></g></svg>