<svg xmlns="http://www.w3.org/2000/svg" width="500" height="500" style="background-color:#262a2b" version="1.2"><path d="M.5.5h499v499H.5z" style="fill:#262a2b;stroke:#000;stroke-width:.999999;paint-order:stroke fill markers"/><path d="M429 141.2q-3.4 0-5.2-1.8-1.8-2-1.8-5.4V97.2h-36.2q-3.4 0-5.2-1.8-1.8-1.8-1.8-5t1.8-5q1.8-1.8 5.2-1.8H422V48q0-3.6 1.8-5.4 1.8-1.8 5.4-1.8 3.4 0 5 1.8 1.8 1.8 1.8 5.4v35.6h36.2q3.4 0 5.2 1.8 1.8 1.8 1.8 5t-1.8 5q-1.8 1.8-5.2 1.8H436V134q0 3.4-1.8 5.4-1.6 1.8-5.2 1.8z" style="font-size:200px;font-family:Nunito;-inkscape-font-specification:&quot;Nunito, @wght=500&quot;;font-variation-settings:&quot;wght&quot;500;white-space:pre;fill:#7289da"/><path d="M258.8 354.4q-5.1 0-7.2-3.3-2.1-3.3-.9-9.3l8.7-45.6 9.6 2.1h-24.6q-3.6 0-6.3-.9-2.7-1.2-4.2-3.3-1.2-2.1-1.2-5.4 0-4.5 3-6.9 3.3-2.4 8.7-2.4h28.2l-10.5 2.1 14.4-72.9 7.5 2.7h-33.6q-3.6 0-6.3-1.2-2.7-1.2-4.2-3.3-1.2-2.1-1.2-5.1 0-4.8 3-6.9 3.3-2.4 8.7-2.4h37.2l-8.7 2.4 9-45.9q.9-5.4 3.9-7.8 3.3-2.4 8.1-2.4t6.9 3.3q2.1 3.3 1.2 9.3l-8.1 41.1h45.3l8.7-43.5q.9-5.4 3.9-7.8 3.3-2.4 8.1-2.4 5.1 0 7.2 3.3 2.1 3.3.9 9.3l-8.4 43.5-7.5-2.4h22.5q3.9 0 6.3 1.2 2.7.9 3.9 3 1.5 1.8 1.5 5.1 0 4.5-3 7.2-3 2.4-8.7 2.4h-26.4l8.7-2.7-14.4 73.2-7.5-2.4h33.6q3.6 0 6.3 1.2 2.7.9 3.9 3 1.5 2.1 1.5 5.1 0 4.8-3 7.2-3 2.4-8.7 2.4h-37.2l8.7-2.1-9.6 48q-.9 5.4-3.9 7.8-3 2.4-7.8 2.4-5.1 0-7.5-3.3-2.1-3.3-.9-9.3l8.7-43.5h-45.3l-9 45.9q-.9 5.4-3.9 7.8-3 2.4-8.1 2.4zm24.3-75h45.3l13.2-68.1h-45z" style="font-family:Nunito;-inkscape-font-specification:&quot;Nunito, @wght=500&quot;;font-variation-settings:&quot;wght&quot;500;white-space:pre;display:inline;fill:#fff;stroke:#7289da;stroke-width:10;stroke-linejoin:round;paint-order:stroke fill markers"/><path d="M38.9 352.3q-7.2 0-11.1-3.9-3.9-3.9-3.9-11.1V155.8q0-7.2 3.9-11.1 3.9-3.9 11.1-3.9h57.9q51.9 0 79.8 27.3 28.2 27 28.2 78.3 0 25.5-7.2 45.3-7.2 19.8-21 33.3-13.8 13.2-33.9 20.4-19.8 6.9-45.9 6.9zm12.9-23.7H95q20.4 0 35.4-5.1t24.9-15.3q10.2-10.2 15.3-25.5 5.1-15.6 5.1-36.3 0-41.1-20.4-61.5-20.1-20.4-60.3-20.4H51.8Z" style="font-family:Nunito;-inkscape-font-specification:&quot;Nunito, @wght=500&quot;;font-variation-settings:&quot;wght&quot;500;white-space:pre;fill:#fff;stroke:#7289da;stroke-width:10;stroke-linejoin:round;paint-order:stroke fill markers"/><g fill="#8899a6" style="stroke-width:.141954"><path d="m15 9 6-6s6-6 12 0 0 12 0 12l-8 8s-6 6-12 0c-1.125-1.125-1.822-2.62-1.822-2.62l3.353-3.348S14.396 18.396 16 20c0 0 3 3 6 0l8-8s3-3 0-6-6 0-6 0l-3.729 3.729s-1.854-1.521-5.646-.354z" style="stroke-width:.0335845" transform="translate(223.744 222.652) scale(7.04457)"/><path d="m20.845 27-6 6s-6 6-12 0 0-12 0-12l8-8s6-6 12 0c1.125 1.125 1.822 2.62 1.822 2.62l-3.354 3.349s.135-1.365-1.469-2.969c0 0-3-3-6 0l-8 8s-3 3 0 6 6 0 6 0l3.729-3.729s1.854 1.521 5.646.354z" style="stroke-width:.0335845" transform="translate(223.744 222.652) scale(7.04457)"/></g></svg>